<?xml version="1.0" encoding="UTF-8"?>
<svg xmlns="http://www.w3.org/2000/svg" width="700" height="500" viewBox="0 0 700.00 500.00" font-family="Inter, Arial, sans-serif">
<defs>
<marker id="arrow" markerWidth="8" markerHeight="8" refX="4" refY="4" orient="auto" markerUnits="strokeWidth"><path d="M 0 0 L 8 4 L 0 8 z" fill="#2b2b2b"/></marker>
<pattern id="grid10" width="10" height="10" patternUnits="userSpaceOnUse"><path d="M 10 0 L 0 0 0 10" fill="none" stroke="#edf2f6" stroke-width="0.6"/></pattern>
<pattern id="grid50" width="50" height="50" patternUnits="userSpaceOnUse"><rect width="50" height="50" fill="url(#grid10)"/><path d="M 50 0 L 0 0 0 50" fill="none" stroke="#dbe3ea" stroke-width="0.8"/></pattern>
</defs>
<rect x="0" y="0" width="700.00" height="500.00" fill="#fbfcfd"/>
<rect x="0" y="0" width="700.00" height="500.00" fill="url(#grid50)"/>
<text x="24" y="34" font-size="22" fill="#1f2933" font-weight="700">top_ring</text>
<rect x="500.00" y="24.00" width="180.00" height="96.00" stroke="#94a3b8" stroke-width="1.00" fill="#ffffffcc"/>
<text x="510.00" y="50.00" font-size="13.00" text-anchor="start" fill="#1f2933" font-weight="400">body_outer_d = 165.00 mm</text>
<text x="510.00" y="70.00" font-size="13.00" text-anchor="start" fill="#1f2933" font-weight="400">sieve_opening_d = 148.00 mm</text>
<text x="510.00" y="90.00" font-size="13.00" text-anchor="start" fill="#1f2933" font-weight="400">sieve_ring_seat_d = 156.80 mm</text>
<text x="510.00" y="110.00" font-size="13.00" text-anchor="start" fill="#1f2933" font-weight="400">top_ring_h = 20.00 mm</text>
<line x1="224.00" y1="235.00" x2="236.00" y2="235.00" stroke="#7c8794" stroke-width="0.90"/>
<line x1="230.00" y1="229.00" x2="230.00" y2="241.00" stroke="#7c8794" stroke-width="0.90"/>
<circle cx="230.00" cy="235.00" r="82.50" stroke="#c56b19" stroke-width="2.20" fill="none"/>
<circle cx="230.00" cy="235.00" r="78.40" stroke="#c56b19" stroke-width="2.20" fill="none" stroke-dasharray="6 4"/>
<circle cx="230.00" cy="235.00" r="74.00" stroke="#c56b19" stroke-width="2.20" fill="none"/>
<line x1="147.50" y1="317.50" x2="147.50" y2="390.00" stroke="#7a7a7a" stroke-width="0.80"/>
<line x1="312.50" y1="317.50" x2="312.50" y2="390.00" stroke="#7a7a7a" stroke-width="0.80"/>
<line x1="147.50" y1="390.00" x2="312.50" y2="390.00" stroke="#2b2b2b" stroke-width="1.0" marker-start="url(#arrow)" marker-end="url(#arrow)"/>
<text x="230.00" y="384.00" font-size="14.00" text-anchor="middle" fill="#1f2933" font-weight="400">body_outer_d Ø165.00</text>
<line x1="156.00" y1="161.00" x2="156.00" y2="120.00" stroke="#7a7a7a" stroke-width="0.80"/>
<line x1="304.00" y1="161.00" x2="304.00" y2="120.00" stroke="#7a7a7a" stroke-width="0.80"/>
<line x1="156.00" y1="120.00" x2="304.00" y2="120.00" stroke="#2b2b2b" stroke-width="1.0" marker-start="url(#arrow)" marker-end="url(#arrow)"/>
<text x="230.00" y="114.00" font-size="14.00" text-anchor="middle" fill="#1f2933" font-weight="400">sieve_opening_d Ø148.00</text>
<line x1="308.40" y1="156.60" x2="450.00" y2="156.60" stroke="#7a7a7a" stroke-width="0.80"/>
<line x1="308.40" y1="313.40" x2="450.00" y2="313.40" stroke="#7a7a7a" stroke-width="0.80"/>
<line x1="450.00" y1="156.60" x2="450.00" y2="313.40" stroke="#2b2b2b" stroke-width="1.0" marker-start="url(#arrow)" marker-end="url(#arrow)"/>
<text x="444.00" y="235.00" font-size="14.00" text-anchor="middle" fill="#1f2933" font-weight="400" transform="rotate(-90.00 444.00 235.00)">sieve_ring_seat_d Ø156.80</text>
<line x1="500.00" y1="225.00" x2="545.00" y2="225.00" stroke="#7a7a7a" stroke-width="0.80"/>
<line x1="500.00" y1="245.00" x2="545.00" y2="245.00" stroke="#7a7a7a" stroke-width="0.80"/>
<line x1="545.00" y1="225.00" x2="545.00" y2="245.00" stroke="#2b2b2b" stroke-width="1.0" marker-start="url(#arrow)" marker-end="url(#arrow)"/>
<text x="539.00" y="235.00" font-size="14.00" text-anchor="middle" fill="#1f2933" font-weight="400" transform="rotate(-90.00 539.00 235.00)">top_ring_h 20.00</text>
</svg>
